HIERARCHY
ROOT Hips
{
  OFFSET -35.4901 99.2528 17.4586
  CHANNELS 6 Xposition Yposition Zposition Zrotation Xrotation Yrotation
  JOINT LeftUpLeg
  {
    OFFSET 8.64259 1.95398 -2.38835
    CHANNELS 3 Zrotation Xrotation Yrotation
    JOINT LeftLeg
    {
      OFFSET 43.7702 0 0
      CHANNELS 3 Zrotation Xrotation Yrotation
      JOINT LeftFoot
      {
        OFFSET 40.6238 0 0
        CHANNELS 3 Zrotation Xrotation Yrotation
        JOINT LeftToeBase
        {
          OFFSET 12.7242 0 0
          CHANNELS 3 Zrotation Xrotation Yrotation
          End Site
          {
            OFFSET 0 0 0
          }
        }
      }
    }
  }
  JOINT RightUpLeg
  {
    OFFSET -8.2249 1.95398 -2.59336
    CHANNELS 3 Zrotation Xrotation Yrotation
    JOINT RightLeg
    {
      OFFSET 43.5653 0 0
      CHANNELS 3 Zrotation Xrotation Yrotation
      JOINT RightFoot
      {
        OFFSET 40.6238 0 0
        CHANNELS 3 Zrotation Xrotation Yrotation
        JOINT RightToeBase
        {
          OFFSET 12.7242 0 0
          CHANNELS 3 Zrotation Xrotation Yrotation
          End Site
          {
            OFFSET 0 0 0
          }
        }
      }
    }
  }
  JOINT Spine
  {
    OFFSET 0.165834 0.87714 6.61349
    CHANNELS 3 Zrotation Xrotation Yrotation
    JOINT Spine1
    {
      OFFSET 7.38963 1.71661e-005 0
      CHANNELS 3 Zrotation Xrotation Yrotation
      JOINT Spine2
      {
        OFFSET 11.9445 1.14441e-005 0
        CHANNELS 3 Zrotation Xrotation Yrotation
        JOINT Spine3
        {
          OFFSET 14.7254 4.19617e-005 0
          CHANNELS 3 Zrotation Xrotation Yrotation
          JOINT Spine4
          {
            OFFSET 10.9679 0 0
            CHANNELS 3 Zrotation Xrotation Yrotation
            JOINT RightShoulder
            {
              OFFSET 2.46616 -1.6653 3.69651
              CHANNELS 3 Zrotation Xrotation Yrotation
              JOINT RightArm
              {
                OFFSET 13.0012 0 0
                CHANNELS 3 Zrotation Xrotation Yrotation
                JOINT RightForeArm
                {
                  OFFSET 28.7848 1.52588e-005 0
                  CHANNELS 3 Zrotation Xrotation Yrotation
                  JOINT RightHand
                  {
                    OFFSET 26.5688 1.52588e-005 0
                    CHANNELS 3 Zrotation Xrotation Yrotation
                    End Site
                    {
                      OFFSET 0 0 0
                    }
                  }
                }
              }
            }
            JOINT LeftShoulder
            {
              OFFSET 2.38034 -1.29275 -3.7523
              CHANNELS 3 Zrotation Xrotation Yrotation
              JOINT LeftArm
              {
                OFFSET 16.3182 6.10351e-005 0
                CHANNELS 3 Zrotation Xrotation Yrotation
                JOINT LeftForeArm
                {
                  OFFSET 27.0901 0 0
                  CHANNELS 3 Zrotation Xrotation Yrotation
                  JOINT LeftHand
                  {
                    OFFSET 24.5451 1.52588e-005 0
                    CHANNELS 3 Zrotation Xrotation Yrotation
                    End Site
                    {
                      OFFSET 0 0 0
                    }
                  }
                }
              }
            }
            JOINT Neck
            {
              OFFSET 5.0226 -0.0266342 0
              CHANNELS 3 Zrotation Xrotation Yrotation
              JOINT Head
              {
                OFFSET 6.69364 2.86102e-005 0
                CHANNELS 3 Zrotation Xrotation Yrotation
                End Site
                {
                  OFFSET 0 0 0
                }
              }
            }
          }
        }
      }
    }
  }
}
MOTION
Frames:	12
Frame Time:	0.0416667
-321.478 95.143 301.494 -103.506 -44.6812 -102.139 -177.362 -5.71356 89.2764 -9.11673 15.487 0.678465 67.8343 4.28777 0.0868444 12.766 -1.34433 2.89848 170.243 -3.21127 85.1595 -15.867 -15.7451 -3.1679 68.5526 -4.29058 -0.413938 26.9802 -1.71344 4.66441 -0.299516 8.90524 -89.6824 9.06434 -0.455501 0.660758 -2.6067 -0.425973 0.680153 -25.1417 -0.633017 0.493316 -5.12902 -0.633021 0.493312 79.903 -29.2862 -126.52 35.4679 -1.96601 -8.24923 -6.43722 -14.8164 -3.65003 -14.6075 1.35037 -20.4028 -80.8274 -46.2735 92.3295 -24.9041 13.8924 -18.7861 -0.498928 -10.7599 -7.33772 9.24212 -0.0526297 -3.99725 8.66619 19.4924 -1.69733 -8.25916 18.9661 9.744 
-321.521 95.1652 301.494 -103.451 -44.7654 -102.066 -177.315 -5.65442 89.3664 -9.19809 15.3162 0.652894 68.2378 4.4275 -0.44722 11.9288 -1.43247 3.03292 170.235 -3.35289 85.2236 -15.5853 -15.8423 -3.13475 68.5423 -4.31547 -0.633601 26.674 -1.70484 4.64919 -0.269298 8.88821 -89.7032 9.09821 -0.404394 0.616269 -2.57281 -0.376895 0.63347 -25.1077 -0.570924 0.466245 -5.09509 -0.570919 0.466242 80.2095 -29.4529 -125.847 35.4081 -2.30849 -8.09957 -6.07709 -14.7625 -4.12344 -14.9414 1.38021 -20.2593 -80.8737 -46.4007 92.264 -24.1845 14.4958 -19.2744 -0.95097 -11.7225 -6.7819 9.50335 -0.0864419 -4.33145 8.89216 19.296 -1.6565 -8.77528 18.7238 9.55367 
-321.649 95.1638 301.548 -103.378 -44.9163 -101.965 -177.193 -5.72911 89.5239 -8.97612 15.6767 0.58987 68.1436 4.4013 -0.163476 12.873 -1.06442 2.5433 170.309 -3.5978 85.3531 -15.1873 -15.6721 -3.15296 68.4896 -4.27855 -0.648687 26.7208 -1.69473 4.62222 -0.161855 8.8666 -89.7854 9.14095 -0.226777 0.441164 -2.53005 -0.207135 0.450708 -25.0649 -0.34889 0.35262 -5.0523 -0.348894 0.352605 81.5887 -29.2789 -123.386 35.9106 -3.01317 -8.02853 -5.29026 -15.2545 -4.91528 -15.7057 1.38294 -19.5727 -81.2667 -47.547 91.7228 -23.0961 14.7356 -19.5448 -1.06845 -10.8571 -6.81661 9.48591 -0.074044 -4.21074 3.83742 17.3982 1.80943 1.20934 17.1805 8.96555 
-321.89 95.1892 301.667 -103.271 -45.2395 -101.75 -176.949 -5.76623 89.8636 -8.82585 16.3141 0.50833 68.0625 4.36229 -0.0897646 13.3148 -1.16472 2.65345 170.331 -3.95258 85.5835 -14.6611 -15.4733 -3.0435 68.3837 -4.25096 -0.931618 26.6489 -1.80555 4.907 -0.0135765 8.78112 -89.8673 9.31156 0.0325291 0.260548 -2.35942 0.0439578 0.258851 -24.8944 -0.0472788 0.25828 -4.88173 -0.0472776 0.25827 83.4034 -29.1403 -120.03 37.288 -3.53871 -7.68577 -4.45037 -16.1285 -5.92721 -16.9995 1.38304 -18.5503 -82.1667 -48.0242 90.3599 -22.6019 15.2071 -19.6959 -1.09183 -9.53038 -6.02035 8.76777 -0.118649 -4.65749 -6.39285 13.4251 5.2897 20.3741 14.7117 10.5552 
-322.207 95.2114 301.797 -103.12 -45.6523 -101.394 -176.629 -5.69838 90.3816 -8.89921 16.8524 0.434328 68.4187 4.4701 -0.272504 12.6284 -1.24457 2.77787 170.489 -4.57351 86.0011 -13.6833 -14.908 -2.96317 68.3145 -4.22975 -0.905378 26.4057 -1.77021 4.82117 0.152471 8.64194 -89.9545 9.58993 0.32438 0.0652191 -2.08099 0.326947 0.0508624 -24.6164 0.289757 0.159677 -4.60375 0.289793 0.159691 85.3392 -29.1925 -116.273 38.6598 -4.41087 -6.83098 -3.15956 -17.2908 -7.35674 -18.6528 1.33947 -17.1511 -83.0656 -47.9108 88.9564 -23.0135 15.3704 -19.239 -0.830985 -7.36365 -5.55627 7.83042 -0.171528 -5.27708 -8.0606 12.2062 5.38641 21.7814 13.738 10.5309 
-322.608 95.2633 301.932 -102.955 -46.0267 -101.025 -176.304 -5.79902 90.945 -8.66957 17.461 0.393369 68.3199 4.38658 -0.556945 13.0201 -1.43118 2.99978 170.671 -5.25568 86.4658 -12.6776 -14.4357 -2.88942 68.2288 -4.21683 -1.01433 25.8471 -1.73907 4.75314 0.351076 8.51115 -90.0706 9.85221 0.6679 -0.193629 -1.81857 0.658723 -0.222844 -24.3551 0.695208 0.0160619 -4.34246 0.695218 0.0160627 87.8839 -28.6953 -111.511 40.7291 -5.10311 -5.97288 -2.18045 -19.212 -9.08201 -19.931 1.22393 -15.9338 -84.0213 -48.6616 87.5643 -22.9404 15.3744 -18.8619 -0.527276 -4.66964 -5.31093 6.52727 -0.180067 -5.52146 -3.93613 12.559 4.78998 11.6928 12.9724 9.44806 
-323.107 95.2659 301.995 -102.94 -46.2512 -100.576 -175.635 -5.74596 91.8923 -8.9585 18.4893 0.15802 68.5433 4.45694 -0.362138 13.4706 -1.27461 2.78794 171.063 -5.88995 87.1789 -12.0854 -13.6999 -2.81814 68.2697 -4.27315 -0.890812 25.5901 -1.7758 4.84985 0.587898 8.42909 -90.2449 10.0186 1.06027 -0.573717 -1.65201 1.03401 -0.619837 -24.1904 1.18368 -0.228499 -4.17777 1.18369 -0.228505 90.9882 -27.3285 -105.78 42.9715 -6.65789 -5.48432 -0.740168 -21.5402 -10.7111 -22.3785 1.0701 -14.1161 -85.1679 -49.928 85.9775 -22.2497 15.6691 -19.0243 -0.572657 -2.44818 -4.77216 5.74292 -0.210003 -6.05557 2.52021 12.5021 5.05644 -0.903501 11.5766 4.70471 
-323.642 95.204 301.984 -102.865 -46.5358 -100.197 -175.357 -5.58812 92.5275 -9.40609 19.0401 0.286237 69.2407 4.71083 -0.323529 13.3306 -1.49902 3.07679 171.118 -6.1897 87.6703 -11.9518 -13.6449 -2.46207 68.6595 -4.58475 -1.30727 25.3538 -1.7727 4.84601 0.799578 8.30139 -90.3498 10.2761 1.43319 -0.818141 -1.39432 1.39582 -0.880443 -23.9353 1.61281 -0.349498 -3.92261 1.61281 -0.349506 93.9827 -25.9031 -99.9489 45.5607 -8.25296 -4.76194 0.783948 -23.3443 -12.5575 -23.9763 0.77112 -12.0814 -86.316 -49.9585 84.2477 -22.6709 15.9836 -18.504 -0.527935 0.257911 -4.25136 5.23655 -0.215358 -6.23573 6.13804 11.2891 5.23517 -8.92673 10.1389 -0.290993 
-324.272 95.2012 301.942 -102.987 -47.4333 -99.8575 -174.255 -5.04032 93.9616 -10.1922 20.6861 -0.331568 69.8547 4.95334 -0.640802 12.8958 -1.41943 2.98891 171.278 -7.32573 88.3976 -10.4048 -12.4352 -2.09689 68.2838 -4.46732 -1.014 25.3052 -1.9022 5.16652 1.00928 8.20137 -90.5238 10.4802 1.77014 -1.19775 -1.19018 1.71569 -1.27451 -23.7335 2.04824 -0.610242 -3.72085 2.04823 -0.610253 97.4768 -24.0154 -92.7111 48.152 -10.0594 -4.17432 2.09742 -25.8841 -14.5164 -25.8001 0.301377 -9.53305 -87.4118 -51.1578 82.8035 -21.7612 16.7925 -18.7745 -0.8633 2.6095 -3.93055 3.92245 -0.244363 -7.16706 6.11702 8.6939 7.174 -10.058 7.41877 -3.25235 
-324.869 95.1932 302.067 -102.321 -48.1159 -99.4371 -173.971 -4.91557 94.3296 -9.61874 22.0778 -0.518284 69.7294 4.94503 -0.143495 13.2058 -1.57469 3.17639 171.406 -7.55149 88.684 -9.60863 -11.5515 -2.01709 68.2285 -4.30752 -0.645414 25.2986 -1.8484 5.03373 1.25277 8.09484 -90.6313 10.698 2.2041 -1.45689 -0.971981 2.13785 -1.5525 -23.52 2.54 -0.726827 -3.50735 2.53999 -0.726842 100.578 -21.8398 -85.856 50.01 -12.6543 -3.78882 4.20092 -29.9343 -15.8315 -28.9066 -0.198326 -7.28777 -88.2914 -52.6771 81.772 -20.8748 17.3475 -19.6279 -1.06597 5.86967 -3.40996 2.05748 -0.22702 -7.86094 6.88042 5.562 9.57648 -10.7415 4.06556 -6.47156 
-325.418 95.1686 302.15 -101.424 -48.7681 -98.5526 -173.638 -4.38908 94.9708 -9.40648 22.789 -0.662917 69.8896 4.99401 -0.408011 13.5489 -1.71073 3.34007 171.76 -7.99037 89.3354 -8.08405 -10.7321 -1.92637 67.8793 -4.18613 -0.592623 25.3436 -1.83527 5.00076 1.44527 7.96583 -90.6856 10.9604 2.56006 -1.60724 -0.709177 2.48684 -1.71839 -23.2621 2.92466 -0.763075 -3.24949 2.92463 -0.763082 102.974 -20.1035 -80.1767 52.1218 -14.292 -3.30649 5.45626 -32.8225 -16.7436 -30.6296 -0.688648 -5.45518 -89.0211 -52.8392 80.7406 -21.631 17.5094 -19.2428 -0.856965 8.10256 -3.58194 0.803845 -0.184969 -7.77501 7.77476 1.67286 11.5537 -11.9847 0.157249 -10.4785 
-325.915 95.1285 302.183 -100.776 -49.333 -97.8383 -173.265 -3.93273 95.6048 -9.32982 23.7609 -0.855874 70.1829 5.13349 -0.229378 13.355 -1.43354 2.99263 171.969 -8.4894 89.8552 -6.71522 -10.2642 -1.73216 67.6278 -4.12466 -0.64495 25.0565 -1.79975 4.91746 1.59998 7.86629 -90.7731 11.1641 2.82537 -1.81492 -0.505256 2.74276 -1.93755 -23.0619 3.24009 -0.881259 -3.04925 3.24009 -0.88127 104.95 -17.6372 -75.0152 54.1645 -15.9106 -3.12498 6.81131 -34.2835 -16.4796 -32.6021 -0.793197 -5.21031 -89.6531 -53.4829 79.9504 -21.3297 18.3406 -19.8035 -1.73677 8.90834 -2.154 1.00183 -0.21733 -8.67309 8.38939 -1.89119 13.5427 -12.6728 -3.49701 -13.405 
